<svg width="64" height="64" viewBox="0 0 64 64" fill="none" xmlns="http://www.w3.org/2000/svg">
  <g clip-path="url(#clip0_4_100)">
    <path fill-rule="evenodd" clip-rule="evenodd"
      d="M26.6274 60.2843L1.17157 34.8284C-0.390526 33.2663 -0.390526 30.7337 1.17157 29.1716L26.6274 3.71572C28.1895 2.15363 30.7222 2.15363 32.2843 3.71572C33.8464 5.27782 33.8464 7.81048 32.2843 9.37258L13.6569 28L60 28C62.2091 28 64 29.7909 64 32C64 34.2091 62.2091 36 60 36L13.6569 36L32.2843 54.6274C33.8464 56.1895 33.8464 58.7222 32.2843 60.2843C30.7222 61.8464 28.1895 61.8464 26.6274 60.2843Z"
      fill="white" />
  </g>
  <defs>
    <clipPath id="clip0_4_100">
      <rect width="64" height="64" fill="white" />
    </clipPath>
  </defs>
</svg>