<svg width="64" height="64" viewBox="0 0 64 64" fill="none" xmlns="http://www.w3.org/2000/svg">
  <g clip-path="url(#clip0_36_19)">
    <path fill-rule="evenodd" clip-rule="evenodd"
      d="M24 40C32.8366 40 40 32.8366 40 24C40 15.1634 32.8366 8 24 8C15.1634 8 8 15.1634 8 24C8 32.8366 15.1634 40 24 40ZM24 48C37.2548 48 48 37.2548 48 24C48 10.7452 37.2548 0 24 0C10.7452 0 0 10.7452 0 24C0 37.2548 10.7452 48 24 48Z"
      fill="white" />
    <path fill-rule="evenodd" clip-rule="evenodd"
      d="M62.1716 61.8284C60.6095 63.3905 58.0768 63.3905 56.5147 61.8284L38.1716 43.4853C36.6095 41.9232 36.6095 39.3905 38.1716 37.8284C39.7337 36.2663 42.2663 36.2663 43.8284 37.8284L62.1716 56.1716C63.7337 57.7337 63.7337 60.2663 62.1716 61.8284Z"
      fill="white" />
  </g>
  <defs>
    <clipPath id="clip0_36_19">
      <rect width="64" height="64" fill="white" />
    </clipPath>
  </defs>
</svg>